<?xml version="1.0" encoding="UTF-8" standalone="no"?><svg xmlns="http://www.w3.org/2000/svg" xmlns:xlink="http://www.w3.org/1999/xlink" contentScriptType="application/ecmascript" contentStyleType="text/css" height="2062px" preserveAspectRatio="none" style="width:1488px;height:2062px;" version="1.1" viewBox="0 0 1488 2062" width="1488px" zoomAndPan="magnify"><defs><filter height="300%" id="f10ixyad36e4cx" width="300%" x="-1" y="-1"><feGaussianBlur result="blurOut" stdDeviation="2.0"/><feColorMatrix in="blurOut" result="blurOut2" type="matrix" values="0 0 0 0 0 0 0 0 0 0 0 0 0 0 0 0 0 0 .4 0"/><feOffset dx="4.0" dy="4.0" in="blurOut2" result="blurOut3"/><feBlend in="SourceGraphic" in2="blurOut3" mode="normal"/></filter></defs><g><!--class Persona--><rect fill="#FEFECE" filter="url(#f10ixyad36e4cx)" height="52.8047" id="Persona" style="stroke: #A80036; stroke-width: 1.5;" width="84" x="600.5" y="8"/><ellipse cx="615.5" cy="24" fill="#ADD1B2" rx="11" ry="11" style="stroke: #A80036; stroke-width: 1.0;"/><path d="M618.4688,29.6406 Q617.8906,29.9375 617.25,30.0859 Q616.6094,30.2344 615.9063,30.2344 Q613.4063,30.2344 612.0859,28.5859 Q610.7656,26.9375 610.7656,23.8125 Q610.7656,20.6875 612.0859,19.0313 Q613.4063,17.375 615.9063,17.375 Q616.6094,17.375 617.2578,17.5313 Q617.9063,17.6875 618.4688,17.9844 L618.4688,20.7031 Q617.8438,20.125 617.25,19.8516 Q616.6563,19.5781 616.0313,19.5781 Q614.6875,19.5781 614,20.6484 Q613.3125,21.7188 613.3125,23.8125 Q613.3125,25.9063 614,26.9766 Q614.6875,28.0469 616.0313,28.0469 Q616.6563,28.0469 617.25,27.7734 Q617.8438,27.5 618.4688,26.9219 L618.4688,29.6406 Z "/><text fill="#000000" font-family="sans-serif" font-size="12" lengthAdjust="spacingAndGlyphs" textLength="52" x="629.5" y="28.1543">Persona</text><line style="stroke: #A80036; stroke-width: 1.5;" x1="601.5" x2="683.5" y1="40" y2="40"/><text fill="#000000" font-family="sans-serif" font-size="11" lengthAdjust="spacingAndGlyphs" textLength="10" x="606.5" y="54.2104">id</text><!--class PersonaPersona--><rect fill="#FEFECE" filter="url(#f10ixyad36e4cx)" height="52.8047" id="PersonaPersona" style="stroke: #A80036; stroke-width: 1.5;" width="132" x="1109.5" y="8"/><ellipse cx="1124.5" cy="24" fill="#A9DCDF" rx="11" ry="11" style="stroke: #A80036; stroke-width: 1.0;"/><path d="M1124.6094,19.3438 L1123.4531,24.4219 L1125.7813,24.4219 L1124.6094,19.3438 Z M1123.125,17.1094 L1126.1094,17.1094 L1129.4688,29.5 L1127.0156,29.5 L1126.25,26.4375 L1122.9688,26.4375 L1122.2188,29.5 L1119.7813,29.5 L1123.125,17.1094 Z "/><text fill="#000000" font-family="sans-serif" font-size="12" font-style="italic" lengthAdjust="spacingAndGlyphs" textLength="100" x="1138.5" y="28.1543">PersonaPersona</text><line style="stroke: #A80036; stroke-width: 1.5;" x1="1110.5" x2="1240.5" y1="40" y2="40"/><text fill="#000000" font-family="sans-serif" font-size="11" lengthAdjust="spacingAndGlyphs" textLength="10" x="1115.5" y="54.2104">id</text><!--class PersonaPersonaFísica--><rect fill="#FEFECE" filter="url(#f10ixyad36e4cx)" height="32" id="PersonaPersonaFísica" style="stroke: #A80036; stroke-width: 1.5;" width="171" x="1090" y="138"/><ellipse cx="1105" cy="154" fill="#ADD1B2" rx="11" ry="11" style="stroke: #A80036; stroke-width: 1.0;"/><path d="M1107.9688,159.6406 Q1107.3906,159.9375 1106.75,160.0859 Q1106.1094,160.2344 1105.4063,160.2344 Q1102.9063,160.2344 1101.5859,158.5859 Q1100.2656,156.9375 1100.2656,153.8125 Q1100.2656,150.6875 1101.5859,149.0313 Q1102.9063,147.375 1105.4063,147.375 Q1106.1094,147.375 1106.7578,147.5313 Q1107.4063,147.6875 1107.9688,147.9844 L1107.9688,150.7031 Q1107.3438,150.125 1106.75,149.8516 Q1106.1563,149.5781 1105.5313,149.5781 Q1104.1875,149.5781 1103.5,150.6484 Q1102.8125,151.7188 1102.8125,153.8125 Q1102.8125,155.9063 1103.5,156.9766 Q1104.1875,158.0469 1105.5313,158.0469 Q1106.1563,158.0469 1106.75,157.7734 Q1107.3438,157.5 1107.9688,156.9219 L1107.9688,159.6406 Z "/><text fill="#000000" font-family="sans-serif" font-size="12" lengthAdjust="spacingAndGlyphs" textLength="139" x="1119" y="158.1543">PersonaPersonaFísica</text><!--class PersonaPersonaJurídica--><rect fill="#FEFECE" filter="url(#f10ixyad36e4cx)" height="32" id="PersonaPersonaJurídica" style="stroke: #A80036; stroke-width: 1.5;" width="181" x="1296" y="138"/><ellipse cx="1311" cy="154" fill="#ADD1B2" rx="11" ry="11" style="stroke: #A80036; stroke-width: 1.0;"/><path d="M1313.9688,159.6406 Q1313.3906,159.9375 1312.75,160.0859 Q1312.1094,160.2344 1311.4063,160.2344 Q1308.9063,160.2344 1307.5859,158.5859 Q1306.2656,156.9375 1306.2656,153.8125 Q1306.2656,150.6875 1307.5859,149.0313 Q1308.9063,147.375 1311.4063,147.375 Q1312.1094,147.375 1312.7578,147.5313 Q1313.4063,147.6875 1313.9688,147.9844 L1313.9688,150.7031 Q1313.3438,150.125 1312.75,149.8516 Q1312.1563,149.5781 1311.5313,149.5781 Q1310.1875,149.5781 1309.5,150.6484 Q1308.8125,151.7188 1308.8125,153.8125 Q1308.8125,155.9063 1309.5,156.9766 Q1310.1875,158.0469 1311.5313,158.0469 Q1312.1563,158.0469 1312.75,157.7734 Q1313.3438,157.5 1313.9688,156.9219 L1313.9688,159.6406 Z "/><text fill="#000000" font-family="sans-serif" font-size="12" lengthAdjust="spacingAndGlyphs" textLength="149" x="1325" y="158.1543">PersonaPersonaJurídica</text><!--class PersonaCategoría--><rect fill="#FEFECE" filter="url(#f10ixyad36e4cx)" height="32" id="PersonaCategoría" style="stroke: #A80036; stroke-width: 1.5;" width="145" x="6" y="138"/><ellipse cx="21" cy="154" fill="#ADD1B2" rx="11" ry="11" style="stroke: #A80036; stroke-width: 1.0;"/><path d="M23.9688,159.6406 Q23.3906,159.9375 22.75,160.0859 Q22.1094,160.2344 21.4063,160.2344 Q18.9063,160.2344 17.5859,158.5859 Q16.2656,156.9375 16.2656,153.8125 Q16.2656,150.6875 17.5859,149.0313 Q18.9063,147.375 21.4063,147.375 Q22.1094,147.375 22.7578,147.5313 Q23.4063,147.6875 23.9688,147.9844 L23.9688,150.7031 Q23.3438,150.125 22.75,149.8516 Q22.1563,149.5781 21.5313,149.5781 Q20.1875,149.5781 19.5,150.6484 Q18.8125,151.7188 18.8125,153.8125 Q18.8125,155.9063 19.5,156.9766 Q20.1875,158.0469 21.5313,158.0469 Q22.1563,158.0469 22.75,157.7734 Q23.3438,157.5 23.9688,156.9219 L23.9688,159.6406 Z "/><text fill="#000000" font-family="sans-serif" font-size="12" lengthAdjust="spacingAndGlyphs" textLength="113" x="35" y="158.1543">PersonaCategoría</text><!--class PersonaImpuesto--><rect fill="#FEFECE" filter="url(#f10ixyad36e4cx)" height="32" id="PersonaImpuesto" style="stroke: #A80036; stroke-width: 1.5;" width="142" x="101.5" y="325"/><ellipse cx="116.5" cy="341" fill="#ADD1B2" rx="11" ry="11" style="stroke: #A80036; stroke-width: 1.0;"/><path d="M119.4688,346.6406 Q118.8906,346.9375 118.25,347.0859 Q117.6094,347.2344 116.9063,347.2344 Q114.4063,347.2344 113.0859,345.5859 Q111.7656,343.9375 111.7656,340.8125 Q111.7656,337.6875 113.0859,336.0313 Q114.4063,334.375 116.9063,334.375 Q117.6094,334.375 118.2578,334.5313 Q118.9063,334.6875 119.4688,334.9844 L119.4688,337.7031 Q118.8438,337.125 118.25,336.8516 Q117.6563,336.5781 117.0313,336.5781 Q115.6875,336.5781 115,337.6484 Q114.3125,338.7188 114.3125,340.8125 Q114.3125,342.9063 115,343.9766 Q115.6875,345.0469 117.0313,345.0469 Q117.6563,345.0469 118.25,344.7734 Q118.8438,344.5 119.4688,343.9219 L119.4688,346.6406 Z "/><text fill="#000000" font-family="sans-serif" font-size="12" lengthAdjust="spacingAndGlyphs" textLength="110" x="130.5" y="345.1543">PersonaImpuesto</text><!--class PersonaDomicilio--><rect fill="#FEFECE" filter="url(#f10ixyad36e4cx)" height="32" id="PersonaDomicilio" style="stroke: #A80036; stroke-width: 1.5;" width="139" x="185" y="512"/><ellipse cx="200" cy="528" fill="#ADD1B2" rx="11" ry="11" style="stroke: #A80036; stroke-width: 1.0;"/><path d="M202.9688,533.6406 Q202.3906,533.9375 201.75,534.0859 Q201.1094,534.2344 200.4063,534.2344 Q197.9063,534.2344 196.5859,532.5859 Q195.2656,530.9375 195.2656,527.8125 Q195.2656,524.6875 196.5859,523.0313 Q197.9063,521.375 200.4063,521.375 Q201.1094,521.375 201.7578,521.5313 Q202.4063,521.6875 202.9688,521.9844 L202.9688,524.7031 Q202.3438,524.125 201.75,523.8516 Q201.1563,523.5781 200.5313,523.5781 Q199.1875,523.5781 198.5,524.6484 Q197.8125,525.7188 197.8125,527.8125 Q197.8125,529.9063 198.5,530.9766 Q199.1875,532.0469 200.5313,532.0469 Q201.1563,532.0469 201.75,531.7734 Q202.3438,531.5 202.9688,530.9219 L202.9688,533.6406 Z "/><text fill="#000000" font-family="sans-serif" font-size="12" lengthAdjust="spacingAndGlyphs" textLength="107" x="214" y="532.1543">PersonaDomicilio</text><!--class PersonaTeléfono--><rect fill="#FEFECE" filter="url(#f10ixyad36e4cx)" height="32" id="PersonaTeléfono" style="stroke: #A80036; stroke-width: 1.5;" width="138" x="270.5" y="699"/><ellipse cx="285.5" cy="715" fill="#ADD1B2" rx="11" ry="11" style="stroke: #A80036; stroke-width: 1.0;"/><path d="M288.4688,720.6406 Q287.8906,720.9375 287.25,721.0859 Q286.6094,721.2344 285.9063,721.2344 Q283.4063,721.2344 282.0859,719.5859 Q280.7656,717.9375 280.7656,714.8125 Q280.7656,711.6875 282.0859,710.0313 Q283.4063,708.375 285.9063,708.375 Q286.6094,708.375 287.2578,708.5313 Q287.9063,708.6875 288.4688,708.9844 L288.4688,711.7031 Q287.8438,711.125 287.25,710.8516 Q286.6563,710.5781 286.0313,710.5781 Q284.6875,710.5781 284,711.6484 Q283.3125,712.7188 283.3125,714.8125 Q283.3125,716.9063 284,717.9766 Q284.6875,719.0469 286.0313,719.0469 Q286.6563,719.0469 287.25,718.7734 Q287.8438,718.5 288.4688,717.9219 L288.4688,720.6406 Z "/><text fill="#000000" font-family="sans-serif" font-size="12" lengthAdjust="spacingAndGlyphs" textLength="106" x="299.5" y="719.1543">PersonaTeléfono</text><!--class PersonaEmail--><rect fill="#FEFECE" filter="url(#f10ixyad36e4cx)" height="32" id="PersonaEmail" style="stroke: #A80036; stroke-width: 1.5;" width="117" x="362" y="886"/><ellipse cx="377" cy="902" fill="#ADD1B2" rx="11" ry="11" style="stroke: #A80036; stroke-width: 1.0;"/><path d="M379.9688,907.6406 Q379.3906,907.9375 378.75,908.0859 Q378.1094,908.2344 377.4063,908.2344 Q374.9063,908.2344 373.5859,906.5859 Q372.2656,904.9375 372.2656,901.8125 Q372.2656,898.6875 373.5859,897.0313 Q374.9063,895.375 377.4063,895.375 Q378.1094,895.375 378.7578,895.5313 Q379.4063,895.6875 379.9688,895.9844 L379.9688,898.7031 Q379.3438,898.125 378.75,897.8516 Q378.1563,897.5781 377.5313,897.5781 Q376.1875,897.5781 375.5,898.6484 Q374.8125,899.7188 374.8125,901.8125 Q374.8125,903.9063 375.5,904.9766 Q376.1875,906.0469 377.5313,906.0469 Q378.1563,906.0469 378.75,905.7734 Q379.3438,905.5 379.9688,904.9219 L379.9688,907.6406 Z "/><text fill="#000000" font-family="sans-serif" font-size="12" lengthAdjust="spacingAndGlyphs" textLength="85" x="391" y="906.1543">PersonaEmail</text><!--class PersonaJurisdicción--><rect fill="#FEFECE" filter="url(#f10ixyad36e4cx)" height="32" id="PersonaJurisdicción" style="stroke: #A80036; stroke-width: 1.5;" width="154" x="409.5" y="1073"/><ellipse cx="424.5" cy="1089" fill="#ADD1B2" rx="11" ry="11" style="stroke: #A80036; stroke-width: 1.0;"/><path d="M427.4688,1094.6406 Q426.8906,1094.9375 426.25,1095.0859 Q425.6094,1095.2344 424.9063,1095.2344 Q422.4063,1095.2344 421.0859,1093.5859 Q419.7656,1091.9375 419.7656,1088.8125 Q419.7656,1085.6875 421.0859,1084.0313 Q422.4063,1082.375 424.9063,1082.375 Q425.6094,1082.375 426.2578,1082.5313 Q426.9063,1082.6875 427.4688,1082.9844 L427.4688,1085.7031 Q426.8438,1085.125 426.25,1084.8516 Q425.6563,1084.5781 425.0313,1084.5781 Q423.6875,1084.5781 423,1085.6484 Q422.3125,1086.7188 422.3125,1088.8125 Q422.3125,1090.9063 423,1091.9766 Q423.6875,1093.0469 425.0313,1093.0469 Q425.6563,1093.0469 426.25,1092.7734 Q426.8438,1092.5 427.4688,1091.9219 L427.4688,1094.6406 Z "/><text fill="#000000" font-family="sans-serif" font-size="12" lengthAdjust="spacingAndGlyphs" textLength="122" x="438.5" y="1093.1543">PersonaJurisdicción</text><!--class PersonaActividad--><rect fill="#FEFECE" filter="url(#f10ixyad36e4cx)" height="32" id="PersonaActividad" style="stroke: #A80036; stroke-width: 1.5;" width="140" x="494.5" y="1244"/><ellipse cx="509.5" cy="1260" fill="#ADD1B2" rx="11" ry="11" style="stroke: #A80036; stroke-width: 1.0;"/><path d="M512.4688,1265.6406 Q511.8906,1265.9375 511.25,1266.0859 Q510.6094,1266.2344 509.9063,1266.2344 Q507.4063,1266.2344 506.0859,1264.5859 Q504.7656,1262.9375 504.7656,1259.8125 Q504.7656,1256.6875 506.0859,1255.0313 Q507.4063,1253.375 509.9063,1253.375 Q510.6094,1253.375 511.2578,1253.5313 Q511.9063,1253.6875 512.4688,1253.9844 L512.4688,1256.7031 Q511.8438,1256.125 511.25,1255.8516 Q510.6563,1255.5781 510.0313,1255.5781 Q508.6875,1255.5781 508,1256.6484 Q507.3125,1257.7188 507.3125,1259.8125 Q507.3125,1261.9063 508,1262.9766 Q508.6875,1264.0469 510.0313,1264.0469 Q510.6563,1264.0469 511.25,1263.7734 Q511.8438,1263.5 512.4688,1262.9219 L512.4688,1265.6406 Z "/><text fill="#000000" font-family="sans-serif" font-size="12" lengthAdjust="spacingAndGlyphs" textLength="108" x="523.5" y="1264.1543">PersonaActividad</text><!--class PersonaContribuciónMunicipal--><rect fill="#FEFECE" filter="url(#f10ixyad36e4cx)" height="32" id="PersonaContribuciónMunicipal" style="stroke: #A80036; stroke-width: 1.5;" width="221" x="509" y="1399"/><ellipse cx="524" cy="1415" fill="#ADD1B2" rx="11" ry="11" style="stroke: #A80036; stroke-width: 1.0;"/><path d="M526.9688,1420.6406 Q526.3906,1420.9375 525.75,1421.0859 Q525.1094,1421.2344 524.4063,1421.2344 Q521.9063,1421.2344 520.5859,1419.5859 Q519.2656,1417.9375 519.2656,1414.8125 Q519.2656,1411.6875 520.5859,1410.0313 Q521.9063,1408.375 524.4063,1408.375 Q525.1094,1408.375 525.7578,1408.5313 Q526.4063,1408.6875 526.9688,1408.9844 L526.9688,1411.7031 Q526.3438,1411.125 525.75,1410.8516 Q525.1563,1410.5781 524.5313,1410.5781 Q523.1875,1410.5781 522.5,1411.6484 Q521.8125,1412.7188 521.8125,1414.8125 Q521.8125,1416.9063 522.5,1417.9766 Q523.1875,1419.0469 524.5313,1419.0469 Q525.1563,1419.0469 525.75,1418.7734 Q526.3438,1418.5 526.9688,1417.9219 L526.9688,1420.6406 Z "/><text fill="#000000" font-family="sans-serif" font-size="12" lengthAdjust="spacingAndGlyphs" textLength="189" x="538" y="1419.1543">PersonaContribuciónMunicipal</text><!--class PersonaArchivo--><rect fill="#FEFECE" filter="url(#f10ixyad36e4cx)" height="32" id="PersonaArchivo" style="stroke: #A80036; stroke-width: 1.5;" width="129" x="679" y="1554"/><ellipse cx="694" cy="1570" fill="#ADD1B2" rx="11" ry="11" style="stroke: #A80036; stroke-width: 1.0;"/><path d="M696.9688,1575.6406 Q696.3906,1575.9375 695.75,1576.0859 Q695.1094,1576.2344 694.4063,1576.2344 Q691.9063,1576.2344 690.5859,1574.5859 Q689.2656,1572.9375 689.2656,1569.8125 Q689.2656,1566.6875 690.5859,1565.0313 Q691.9063,1563.375 694.4063,1563.375 Q695.1094,1563.375 695.7578,1563.5313 Q696.4063,1563.6875 696.9688,1563.9844 L696.9688,1566.7031 Q696.3438,1566.125 695.75,1565.8516 Q695.1563,1565.5781 694.5313,1565.5781 Q693.1875,1565.5781 692.5,1566.6484 Q691.8125,1567.7188 691.8125,1569.8125 Q691.8125,1571.9063 692.5,1572.9766 Q693.1875,1574.0469 694.5313,1574.0469 Q695.1563,1574.0469 695.75,1573.7734 Q696.3438,1573.5 696.9688,1572.9219 L696.9688,1575.6406 Z "/><text fill="#000000" font-family="sans-serif" font-size="12" lengthAdjust="spacingAndGlyphs" textLength="97" x="708" y="1574.1543">PersonaArchivo</text><!--class PersonaEtiqueta--><rect fill="#FEFECE" filter="url(#f10ixyad36e4cx)" height="32" id="PersonaEtiqueta" style="stroke: #A80036; stroke-width: 1.5;" width="137" x="756" y="1709"/><ellipse cx="771" cy="1725" fill="#ADD1B2" rx="11" ry="11" style="stroke: #A80036; stroke-width: 1.0;"/><path d="M773.9688,1730.6406 Q773.3906,1730.9375 772.75,1731.0859 Q772.1094,1731.2344 771.4063,1731.2344 Q768.9063,1731.2344 767.5859,1729.5859 Q766.2656,1727.9375 766.2656,1724.8125 Q766.2656,1721.6875 767.5859,1720.0313 Q768.9063,1718.375 771.4063,1718.375 Q772.1094,1718.375 772.7578,1718.5313 Q773.4063,1718.6875 773.9688,1718.9844 L773.9688,1721.7031 Q773.3438,1721.125 772.75,1720.8516 Q772.1563,1720.5781 771.5313,1720.5781 Q770.1875,1720.5781 769.5,1721.6484 Q768.8125,1722.7188 768.8125,1724.8125 Q768.8125,1726.9063 769.5,1727.9766 Q770.1875,1729.0469 771.5313,1729.0469 Q772.1563,1729.0469 772.75,1728.7734 Q773.3438,1728.5 773.9688,1727.9219 L773.9688,1730.6406 Z "/><text fill="#000000" font-family="sans-serif" font-size="12" lengthAdjust="spacingAndGlyphs" textLength="105" x="785" y="1729.1543">PersonaEtiqueta</text><!--class PersonaRelación--><rect fill="#FEFECE" filter="url(#f10ixyad36e4cx)" height="32" id="PersonaRelación" style="stroke: #A80036; stroke-width: 1.5;" width="137" x="846" y="1864"/><ellipse cx="861" cy="1880" fill="#ADD1B2" rx="11" ry="11" style="stroke: #A80036; stroke-width: 1.0;"/><path d="M863.9688,1885.6406 Q863.3906,1885.9375 862.75,1886.0859 Q862.1094,1886.2344 861.4063,1886.2344 Q858.9063,1886.2344 857.5859,1884.5859 Q856.2656,1882.9375 856.2656,1879.8125 Q856.2656,1876.6875 857.5859,1875.0313 Q858.9063,1873.375 861.4063,1873.375 Q862.1094,1873.375 862.7578,1873.5313 Q863.4063,1873.6875 863.9688,1873.9844 L863.9688,1876.7031 Q863.3438,1876.125 862.75,1875.8516 Q862.1563,1875.5781 861.5313,1875.5781 Q860.1875,1875.5781 859.5,1876.6484 Q858.8125,1877.7188 858.8125,1879.8125 Q858.8125,1881.9063 859.5,1882.9766 Q860.1875,1884.0469 861.5313,1884.0469 Q862.1563,1884.0469 862.75,1883.7734 Q863.3438,1883.5 863.9688,1882.9219 L863.9688,1885.6406 Z "/><text fill="#000000" font-family="sans-serif" font-size="12" lengthAdjust="spacingAndGlyphs" textLength="105" x="875" y="1884.1543">PersonaRelación</text><!--class PersonaSedeConvenioMultilateral--><rect fill="#FEFECE" filter="url(#f10ixyad36e4cx)" height="32" id="PersonaSedeConvenioMultilateral" style="stroke: #A80036; stroke-width: 1.5;" width="242" x="854.5" y="2019"/><ellipse cx="869.5" cy="2035" fill="#ADD1B2" rx="11" ry="11" style="stroke: #A80036; stroke-width: 1.0;"/><path d="M872.4688,2040.6406 Q871.8906,2040.9375 871.25,2041.0859 Q870.6094,2041.2344 869.9063,2041.2344 Q867.4063,2041.2344 866.0859,2039.5859 Q864.7656,2037.9375 864.7656,2034.8125 Q864.7656,2031.6875 866.0859,2030.0313 Q867.4063,2028.375 869.9063,2028.375 Q870.6094,2028.375 871.2578,2028.5313 Q871.9063,2028.6875 872.4688,2028.9844 L872.4688,2031.7031 Q871.8438,2031.125 871.25,2030.8516 Q870.6563,2030.5781 870.0313,2030.5781 Q868.6875,2030.5781 868,2031.6484 Q867.3125,2032.7188 867.3125,2034.8125 Q867.3125,2036.9063 868,2037.9766 Q868.6875,2039.0469 870.0313,2039.0469 Q870.6563,2039.0469 871.25,2038.7734 Q871.8438,2038.5 872.4688,2037.9219 L872.4688,2040.6406 Z "/><text fill="#000000" font-family="sans-serif" font-size="12" lengthAdjust="spacingAndGlyphs" textLength="210" x="883.5" y="2039.1543">PersonaSedeConvenioMultilateral</text><!--link PersonaPersona to PersonaPersonaFísica--><path d="M1175.5,81.1248 C1175.5,101.1668 1175.5,123.2814 1175.5,137.8332 " fill="none" id="PersonaPersona-PersonaPersonaFísica" style="stroke: #A80036; stroke-width: 1.0;"/><polygon fill="none" points="1168.5001,81.021,1175.5,61.0209,1182.5001,81.0209,1168.5001,81.021" style="stroke: #A80036; stroke-width: 1.0;"/><!--link PersonaPersona to PersonaPersonaJurídica--><path d="M1239.9804,71.0185 C1279.389,93.3376 1327.8422,120.7791 1357.9545,137.8332 " fill="none" id="PersonaPersona-PersonaPersonaJurídica" style="stroke: #A80036; stroke-width: 1.0;"/><polygon fill="none" points="1236.2809,76.968,1222.3277,61.0209,1243.1802,64.7861,1236.2809,76.968" style="stroke: #A80036; stroke-width: 1.0;"/><!--link Persona to PersonaPersona--><path d="M697.9845,34.5 C796.8412,34.5 1003.0116,34.5 1109.1741,34.5 " fill="none" id="Persona-PersonaPersona" style="stroke: #A80036; stroke-width: 1.0;"/><polygon fill="#A80036" points="684.7691,34.5,690.7691,38.5,696.7691,34.5,690.7691,30.5,684.7691,34.5" style="stroke: #A80036; stroke-width: 1.0;"/><text fill="#000000" font-family="sans-serif" font-size="13" lengthAdjust="spacingAndGlyphs" textLength="52" x="871" y="27.5669">persona</text><text fill="#000000" font-family="sans-serif" font-size="13" lengthAdjust="spacingAndGlyphs" textLength="8" x="1093.4822" y="30.7645">1</text><!--link Persona to PersonaCategoría--><path d="M586.7588,37.376 C458.0237,44.446 148.0542,64.0788 109.5,91 C93.8086,101.9568 85.7042,123.1696 81.7826,137.9377 " fill="none" id="Persona-PersonaCategoría" style="stroke: #A80036; stroke-width: 1.0;"/><polygon fill="#A80036" points="600.0873,36.6534,593.8795,32.9841,588.1049,37.3031,594.3127,40.9724,600.0873,36.6534" style="stroke: #A80036; stroke-width: 1.0;"/><text fill="#000000" font-family="sans-serif" font-size="13" lengthAdjust="spacingAndGlyphs" textLength="67" x="110.5" y="104.0669">categorías</text><text fill="#000000" font-family="sans-serif" font-size="13" lengthAdjust="spacingAndGlyphs" textLength="7" x="74.7079" y="126.9279">*</text><!--link Persona to PersonaImpuesto--><path d="M587.2798,37.3132 C496.7411,42.8325 321.6632,57.5827 270.5,91 C188.5358,144.5351 175.0987,278.4673 172.9161,324.8707 " fill="none" id="Persona-PersonaImpuesto" style="stroke: #A80036; stroke-width: 1.0;"/><polygon fill="#A80036" points="600.2632,36.5498,594.0387,32.9089,588.2839,37.2542,594.5084,40.8951,600.2632,36.5498" style="stroke: #A80036; stroke-width: 1.0;"/><text fill="#000000" font-family="sans-serif" font-size="13" lengthAdjust="spacingAndGlyphs" textLength="67" x="196.5" y="213.0669">impuestos</text><text fill="#000000" font-family="sans-serif" font-size="13" lengthAdjust="spacingAndGlyphs" textLength="7" x="164.856" y="313.8378">*</text><!--link Persona to PersonaDomicilio--><path d="M587.3611,41.5413 C516.3099,51.2825 397.3082,70.0558 358.5,91 C323.9284,109.6578 296.5,114.715 296.5,154 C296.5,154 296.5,154 296.5,434.5 C296.5,463.684 279.2632,493.8485 266.8742,511.76 " fill="none" id="Persona-PersonaDomicilio" style="stroke: #A80036; stroke-width: 1.0;"/><polygon fill="#A80036" points="600.4669,39.7723,593.9857,36.6109,588.5748,41.3776,595.0559,44.539,600.4669,39.7723" style="stroke: #A80036; stroke-width: 1.0;"/><text fill="#000000" font-family="sans-serif" font-size="13" lengthAdjust="spacingAndGlyphs" textLength="63" x="297.5" y="291.0669">domicilios</text><text fill="#000000" font-family="sans-serif" font-size="13" lengthAdjust="spacingAndGlyphs" textLength="7" x="262.8138" y="500.985">*</text><!--link Persona to PersonaTeléfono--><path d="M587.2907,42.9176 C533.2442,52.2866 456.1093,69.0447 435.5,91 C343.5706,188.933 388.1258,253.3729 374.5,387 C372.3542,408.0441 377.5,413.3468 377.5,434.5 C377.5,434.5 377.5,434.5 377.5,621.5 C377.5,650.4114 361.714,680.896 350.4912,698.9155 " fill="none" id="Persona-PersonaTeléfono" style="stroke: #A80036; stroke-width: 1.0;"/><polygon fill="#A80036" points="600.144,40.752,593.5628,37.8045,588.3108,42.7458,594.892,45.6933,600.144,40.752" style="stroke: #A80036; stroke-width: 1.0;"/><text fill="#000000" font-family="sans-serif" font-size="13" lengthAdjust="spacingAndGlyphs" textLength="59" x="375.5" y="400.0669">teléfonos</text><text fill="#000000" font-family="sans-serif" font-size="13" lengthAdjust="spacingAndGlyphs" textLength="7" x="346.0663" y="687.898">*</text><!--link Persona to PersonaEmail--><path d="M587.3405,46.2932 C534.0998,61.2974 461.5,92.9501 461.5,154 C461.5,154 461.5,154 461.5,808.5 C461.5,837.5685 444.6736,867.7654 432.5796,885.7153 " fill="none" id="Persona-PersonaEmail" style="stroke: #A80036; stroke-width: 1.0;"/><polygon fill="#A80036" points="600.0635,42.9142,593.2378,40.5883,588.4655,45.9944,595.2913,48.3203,600.0635,42.9142" style="stroke: #A80036; stroke-width: 1.0;"/><text fill="#000000" font-family="sans-serif" font-size="13" lengthAdjust="spacingAndGlyphs" textLength="42" x="462.5" y="478.0669">emails</text><text fill="#000000" font-family="sans-serif" font-size="13" lengthAdjust="spacingAndGlyphs" textLength="7" x="428.4216" y="874.9255">*</text><!--link Persona to PersonaJurisdicción--><path d="M589.5842,65.6167 C561.4073,86.5258 532.5,116.9946 532.5,154 C532.5,154 532.5,154 532.5,995.5 C532.5,1025.1689 513.6216,1055.197 500.0527,1072.9479 " fill="none" id="Persona-PersonaJurisdicción" style="stroke: #A80036; stroke-width: 1.0;"/><polygon fill="#A80036" points="600.2857,58.0774,593.077,58.263,590.4757,64.9886,597.6844,64.803,600.2857,58.0774" style="stroke: #A80036; stroke-width: 1.0;"/><text fill="#000000" font-family="sans-serif" font-size="13" lengthAdjust="spacingAndGlyphs" textLength="85" x="533.5" y="587.0669">jurisdicciones</text><text fill="#000000" font-family="sans-serif" font-size="13" lengthAdjust="spacingAndGlyphs" textLength="7" x="496.5083" y="1061.9416">*</text><!--link Persona to PersonaActividad--><path d="M642.5,74.261 C642.5,97.5074 642.5,127.4169 642.5,154 C642.5,154 642.5,154 642.5,528 C642.5,584.5982 619.9872,595.7748 613.5,652 C612.634,659.5058 613.254,661.4484 613.5,669 C614.167,689.477 616.5,694.5121 616.5,715 C616.5,715 616.5,715 616.5,1182.5 C616.5,1206.9664 598.4084,1229.5335 583.5676,1243.9297 " fill="none" id="Persona-PersonaActividad" style="stroke: #A80036; stroke-width: 1.0;"/><polygon fill="#A80036" points="642.5,61.079,638.5,67.079,642.5,73.079,646.5,67.079,642.5,61.079" style="stroke: #A80036; stroke-width: 1.0;"/><text fill="#000000" font-family="sans-serif" font-size="13" lengthAdjust="spacingAndGlyphs" textLength="72" x="614.5" y="665.0669">actividades</text><text fill="#000000" font-family="sans-serif" font-size="13" lengthAdjust="spacingAndGlyphs" textLength="7" x="581.919" y="1232.9171">*</text><!--link Persona to PersonaContribuciónMunicipal--><path d="M678.338,71.506 C695.9746,93.6152 713.5,123.307 713.5,154 C713.5,154 713.5,154 713.5,621.5 C713.5,684.8255 690.9784,698.0067 684.5,761 C682.336,782.0422 687.5,787.3468 687.5,808.5 C687.5,808.5 687.5,808.5 687.5,1337.5 C687.5,1363.6338 665.3826,1385.1661 646.3754,1398.8453 " fill="none" id="Persona-PersonaContribuciónMunicipal" style="stroke: #A80036; stroke-width: 1.0;"/><polygon fill="#A80036" points="669.7474,61.2903,670.5476,68.4569,677.4707,70.4746,676.6705,63.308,669.7474,61.2903" style="stroke: #A80036; stroke-width: 1.0;"/><text fill="#000000" font-family="sans-serif" font-size="13" lengthAdjust="spacingAndGlyphs" textLength="75" x="685.5" y="774.0669">contrimunis</text><text fill="#000000" font-family="sans-serif" font-size="13" lengthAdjust="spacingAndGlyphs" textLength="7" x="647.4107" y="1387.8037">*</text><!--link Persona to PersonaArchivo--><path d="M696.9882,54.0542 C738.116,72.713 787.5,105.2644 787.5,154 C787.5,154 787.5,154 787.5,715 C787.5,777.7438 778.4573,793.2894 780.5,856 C781.167,876.477 783.5,881.5121 783.5,902 C783.5,902 783.5,902 783.5,1492.5 C783.5,1515.8176 769.0249,1539.1267 757.4901,1553.9994 " fill="none" id="Persona-PersonaArchivo" style="stroke: #A80036; stroke-width: 1.0;"/><polygon fill="#A80036" points="684.8298,48.8197,688.759,54.8663,695.8517,53.565,691.9225,47.5184,684.8298,48.8197" style="stroke: #A80036; stroke-width: 1.0;"/><text fill="#000000" font-family="sans-serif" font-size="13" lengthAdjust="spacingAndGlyphs" textLength="53" x="781.5" y="852.0669">archivos</text><text fill="#000000" font-family="sans-serif" font-size="13" lengthAdjust="spacingAndGlyphs" textLength="7" x="754.0961" y="1543.0108">*</text><!--link Persona to PersonaEtiqueta--><path d="M697.6039,40.5663 C762.4782,51.1201 861.5,79.441 861.5,154 C861.5,154 861.5,154 861.5,1647.5 C861.5,1670.4608 848.1105,1693.8424 837.4408,1708.8295 " fill="none" id="Persona-PersonaEtiqueta" style="stroke: #A80036; stroke-width: 1.0;"/><polygon fill="#A80036" points="684.7254,38.6287,690.0635,43.4769,696.5918,40.4141,691.2537,35.5659,684.7254,38.6287" style="stroke: #A80036; stroke-width: 1.0;"/><text fill="#000000" font-family="sans-serif" font-size="13" lengthAdjust="spacingAndGlyphs" textLength="60" x="862.5" y="961.0669">etiquetas</text><text fill="#000000" font-family="sans-serif" font-size="13" lengthAdjust="spacingAndGlyphs" textLength="7" x="833.5681" y="1698.0775">*</text><!--link Persona to PersonaRelación--><path d="M697.6512,44.4676 C785.2782,61.894 946.5,101.1388 946.5,154 C946.5,154 946.5,154 946.5,1802.5 C946.5,1825.0629 934.769,1848.7144 925.5126,1863.865 " fill="none" id="Persona-PersonaRelación" style="stroke: #A80036; stroke-width: 1.0;"/><polygon fill="#A80036" points="684.7699,41.9575,689.894,47.0313,696.5483,44.2528,691.4242,39.179,684.7699,41.9575" style="stroke: #A80036; stroke-width: 1.0;"/><text fill="#000000" font-family="sans-serif" font-size="13" lengthAdjust="spacingAndGlyphs" textLength="65" x="947.5" y="1039.0669">relaciones</text><text fill="#000000" font-family="sans-serif" font-size="13" lengthAdjust="spacingAndGlyphs" textLength="7" x="921.0951" y="1852.8302">*</text><!--link Persona to PersonaSedeConvenioMultilateral--><path d="M697.8937,39.6371 C806.409,51.2384 1036.5,84.0811 1036.5,154 C1036.5,154 1036.5,154 1036.5,1957.5 C1036.5,1982.8416 1016.1121,2004.7847 998.9097,2018.7889 " fill="none" id="Persona-PersonaSedeConvenioMultilateral" style="stroke: #A80036; stroke-width: 1.0;"/><polygon fill="#A80036" points="684.6649,38.2639,690.2198,42.862,696.6008,39.5029,691.0458,34.9048,684.6649,38.2639" style="stroke: #A80036; stroke-width: 1.0;"/><text fill="#000000" font-family="sans-serif" font-size="13" lengthAdjust="spacingAndGlyphs" textLength="58" x="1037.5" y="1148.0669">cmsedes</text><text fill="#000000" font-family="sans-serif" font-size="13" lengthAdjust="spacingAndGlyphs" textLength="7" x="998.5048" y="2008.0235">*</text><!--link PersonaCategoría to PersonaImpuesto--><!--link PersonaImpuesto to PersonaDomicilio--><!--link PersonaDomicilio to PersonaTeléfono--><!--link PersonaTeléfono to PersonaEmail--><!--link PersonaEmail to PersonaJurisdicción--><!--link PersonaJurisdicción to PersonaActividad--><!--link PersonaActividad to PersonaContribuciónMunicipal--><!--link PersonaContribuciónMunicipal to PersonaArchivo--><!--link PersonaArchivo to PersonaEtiqueta--><!--link PersonaEtiqueta to PersonaRelación--><!--link PersonaRelación to PersonaSedeConvenioMultilateral--><!--
@startuml
hide empty members

class Persona {
    id
}

abstract class PersonaPersona  {
    id
}

PersonaPersona <|- - PersonaPersonaFísica
PersonaPersona <|- - PersonaPersonaJurídica

Persona *- "1" PersonaPersona : persona

Persona *- - "*" PersonaCategoría : categorías
Persona *- - "*" PersonaImpuesto : impuestos
Persona *- - "*" PersonaDomicilio : domicilios
Persona *- - "*" PersonaTeléfono : teléfonos
Persona *- - "*" PersonaEmail : emails
Persona *- - "*" PersonaJurisdicción : jurisdicciones
Persona *- - "*" PersonaActividad : actividades
Persona *- - "*" PersonaContribuciónMunicipal : contrimunis
Persona *- - "*" PersonaArchivo : archivos
Persona *- - "*" PersonaEtiqueta : etiquetas
Persona *- - "*" PersonaRelación : relaciones
Persona *- - "*" PersonaSedeConvenioMultilateral : cmsedes

PersonaCategoría -[hidden]- - PersonaImpuesto
PersonaImpuesto -[hidden]- - PersonaDomicilio
PersonaDomicilio -[hidden]- - PersonaTeléfono
PersonaTeléfono -[hidden]- - PersonaEmail
PersonaEmail -[hidden]- - PersonaJurisdicción
PersonaJurisdicción -[hidden]- - PersonaActividad
PersonaActividad -[hidden]- - PersonaContribuciónMunicipal
PersonaContribuciónMunicipal -[hidden]- - PersonaArchivo
PersonaArchivo -[hidden]- - PersonaEtiqueta
PersonaEtiqueta -[hidden]- - PersonaRelación
PersonaRelación -[hidden]- - PersonaSedeConvenioMultilateral

@enduml

PlantUML version 1.2019.03(Sun Mar 10 08:04:44 ART 2019)
(GPL source distribution)
Java Runtime: Java(TM) SE Runtime Environment
JVM: Java HotSpot(TM) 64-Bit Server VM
Java Version: 1.8.0_191-b12
Operating System: Linux
OS Version: 4.15.0-48-generic
Default Encoding: UTF-8
Language: es
Country: AR
--></g></svg>